<svg width="173" height="15" viewBox="0 0 173 15" fill="none" xmlns="http://www.w3.org/2000/svg">
<path d="M171.306 14.144C170.982 14.144 170.712 14.036 170.496 13.82C170.28 13.604 170.172 13.34 170.172 13.028C170.172 12.716 170.28 12.446 170.496 12.218C170.712 11.99 170.982 11.876 171.306 11.876C171.63 11.876 171.9 11.984 172.116 12.2C172.344 12.416 172.458 12.68 172.458 12.992C172.458 13.292 172.344 13.562 172.116 13.802C171.9 14.03 171.63 14.144 171.306 14.144Z" fill="#52BBFF"/>
<path d="M155.427 14V13.46C155.559 13.46 155.745 13.442 155.985 13.406C156.237 13.37 156.477 13.298 156.705 13.19L161.241 2.03001L160.971 1.27401L162.447 0.734009L166.965 13.172C167.205 13.292 167.457 13.37 167.721 13.406C167.985 13.442 168.189 13.46 168.333 13.46V14H163.707V13.46C163.875 13.46 164.115 13.442 164.427 13.406C164.739 13.37 165.027 13.292 165.291 13.172L163.959 9.51801H159.243L157.749 13.172C158.025 13.292 158.313 13.37 158.613 13.406C158.925 13.442 159.165 13.46 159.333 13.46V14H155.427ZM159.621 8.60001H163.635L161.745 3.39801L159.621 8.60001Z" fill="#52BBFF"/>
<path d="M144.913 14L144.643 13.316L152.113 2.19205H145.885C145.777 2.57605 145.687 2.94805 145.615 3.30805C145.555 3.66805 145.489 4.02805 145.417 4.38805L144.841 4.35205L144.967 1.27405H153.877L154.183 1.95805L146.695 13.082H153.193C153.385 12.842 153.559 12.566 153.715 12.254C153.883 11.942 154.021 11.654 154.129 11.39C154.249 11.114 154.321 10.934 154.345 10.85L154.903 10.994L154.201 14H144.913Z" fill="#52BBFF"/>
<path d="M134.974 14L130.798 3.77605L130.384 13.172C130.66 13.292 130.948 13.37 131.248 13.406C131.56 13.442 131.8 13.46 131.968 13.46V14H127.792V13.46C127.96 13.46 128.2 13.442 128.512 13.406C128.824 13.37 129.112 13.292 129.376 13.172L129.862 2.10205C129.598 1.98205 129.31 1.90405 128.998 1.86805C128.686 1.83205 128.446 1.81405 128.278 1.81405V1.27405H131.482L135.442 10.958L140.194 1.27405H142.84V1.81405C142.672 1.81405 142.438 1.83205 142.138 1.86805C141.838 1.90405 141.55 1.98205 141.274 2.10205L141.706 13.172C141.982 13.292 142.27 13.37 142.57 13.406C142.882 13.442 143.122 13.46 143.29 13.46V14H138.556V13.46C138.724 13.46 138.958 13.442 139.258 13.406C139.57 13.37 139.858 13.292 140.122 13.172L139.78 4.20805L134.974 14Z" fill="#52BBFF"/>
<path d="M114.277 14V13.46C114.409 13.46 114.595 13.442 114.835 13.406C115.087 13.37 115.327 13.298 115.555 13.19L120.091 2.03001L119.821 1.27401L121.297 0.734009L125.815 13.172C126.055 13.292 126.307 13.37 126.571 13.406C126.835 13.442 127.039 13.46 127.183 13.46V14H122.557V13.46C122.725 13.46 122.965 13.442 123.277 13.406C123.589 13.37 123.877 13.292 124.141 13.172L122.809 9.51801H118.093L116.599 13.172C116.875 13.292 117.163 13.37 117.463 13.406C117.775 13.442 118.015 13.46 118.183 13.46V14H114.277ZM118.471 8.60001H122.485L120.595 3.39801L118.471 8.60001Z" fill="#52BBFF"/>
<path d="M100.357 14V13.46C100.525 13.46 100.765 13.442 101.077 13.406C101.389 13.37 101.677 13.292 101.941 13.172V2.10205C101.677 1.98205 101.389 1.90405 101.077 1.86805C100.765 1.83205 100.525 1.81405 100.357 1.81405V1.27405H105.091V1.81405C104.923 1.81405 104.683 1.83205 104.371 1.86805C104.071 1.90405 103.783 1.98205 103.507 2.10205V6.81805H110.707V2.10205C110.443 1.98205 110.155 1.90405 109.843 1.86805C109.531 1.83205 109.291 1.81405 109.123 1.81405V1.27405H113.857V1.81405C113.689 1.81405 113.449 1.83205 113.137 1.86805C112.837 1.90405 112.549 1.98205 112.273 2.10205V13.172C112.549 13.292 112.837 13.37 113.137 13.406C113.449 13.442 113.689 13.46 113.857 13.46V14H109.123V13.46C109.291 13.46 109.531 13.442 109.843 13.406C110.155 13.37 110.443 13.292 110.707 13.172V7.73605H103.507V13.172C103.783 13.292 104.071 13.37 104.371 13.406C104.683 13.442 104.923 13.46 105.091 13.46V14H100.357Z" fill="#52BBFF"/>
<path d="M93.2026 14.252L85.1206 3.52405V13.172C85.3966 13.292 85.6846 13.37 85.9846 13.406C86.2966 13.442 86.5366 13.46 86.7046 13.46V14H82.5286V13.46C82.6966 13.46 82.9366 13.442 83.2486 13.406C83.5606 13.37 83.8486 13.292 84.1126 13.172V2.10205C83.8486 1.98205 83.5606 1.90405 83.2486 1.86805C82.9366 1.83205 82.6966 1.81405 82.5286 1.81405V1.27405H85.3906L93.0046 11.354V2.10205C92.7406 1.98205 92.4526 1.90405 92.1406 1.86805C91.8286 1.83205 91.5886 1.81405 91.4206 1.81405V1.27405H95.5966V1.81405C95.4286 1.81405 95.1886 1.83205 94.8766 1.86805C94.5766 1.90405 94.2886 1.98205 94.0126 2.10205V14.252H93.2026Z" fill="#52BBFF"/>
<path d="M69.1892 14V13.46C69.3212 13.46 69.5072 13.442 69.7472 13.406C69.9992 13.37 70.2392 13.298 70.4672 13.19L75.0032 2.03001L74.7332 1.27401L76.2092 0.734009L80.7272 13.172C80.9672 13.292 81.2192 13.37 81.4832 13.406C81.7472 13.442 81.9512 13.46 82.0952 13.46V14H77.4692V13.46C77.6372 13.46 77.8772 13.442 78.1892 13.406C78.5012 13.37 78.7892 13.292 79.0532 13.172L77.7212 9.51801H73.0052L71.5112 13.172C71.7872 13.292 72.0752 13.37 72.3752 13.406C72.6872 13.442 72.9272 13.46 73.0952 13.46V14H69.1892ZM73.3832 8.60001H77.3972L75.5072 3.39801L73.3832 8.60001Z" fill="#52BBFF"/>
<path d="M60.443 14L56.267 3.77605L55.853 13.172C56.129 13.292 56.417 13.37 56.717 13.406C57.029 13.442 57.269 13.46 57.437 13.46V14H53.261V13.46C53.429 13.46 53.669 13.442 53.981 13.406C54.293 13.37 54.581 13.292 54.845 13.172L55.331 2.10205C55.067 1.98205 54.779 1.90405 54.467 1.86805C54.155 1.83205 53.915 1.81405 53.747 1.81405V1.27405H56.951L60.911 10.958L65.663 1.27405H68.309V1.81405C68.141 1.81405 67.907 1.83205 67.607 1.86805C67.307 1.90405 67.019 1.98205 66.743 2.10205L67.175 13.172C67.451 13.292 67.739 13.37 68.039 13.406C68.351 13.442 68.591 13.46 68.759 13.46V14H64.025V13.46C64.193 13.46 64.427 13.442 64.727 13.406C65.039 13.37 65.327 13.292 65.591 13.172L65.249 4.20805L60.443 14Z" fill="#52BBFF"/>
<path d="M46.9019 14V13.46C47.0699 13.46 47.3099 13.442 47.6219 13.406C47.9339 13.37 48.2219 13.292 48.4859 13.172V2.10205C48.2219 1.98205 47.9339 1.90405 47.6219 1.86805C47.3099 1.83205 47.0699 1.81405 46.9019 1.81405V1.27405H51.6359V1.81405C51.4679 1.81405 51.2279 1.83205 50.9159 1.86805C50.6159 1.90405 50.3279 1.98205 50.0519 2.10205V13.172C50.3279 13.292 50.6159 13.37 50.9159 13.406C51.2279 13.442 51.4679 13.46 51.6359 13.46V14H46.9019Z" fill="#52BBFF"/>
<path d="M36.1441 14V13.46C36.3121 13.46 36.5521 13.442 36.8641 13.406C37.1761 13.37 37.4641 13.292 37.7281 13.172V2.10205C37.4641 1.98205 37.1761 1.90405 36.8641 1.86805C36.5521 1.83205 36.3121 1.81405 36.1441 1.81405V1.27405H44.5141L44.6041 3.72205L44.0281 3.75805C44.0161 3.55405 43.9801 3.30805 43.9201 3.02005C43.8721 2.73205 43.7881 2.45605 43.6681 2.19205H39.2941V6.92605H43.0561C43.1161 6.68605 43.1581 6.45205 43.1821 6.22405C43.2061 5.99605 43.2181 5.81005 43.2181 5.66605H43.7941V9.26605H43.2181C43.2181 9.11005 43.2061 8.90005 43.1821 8.63605C43.1581 8.36005 43.0981 8.09605 43.0021 7.84405H39.2941V13.082H44.0281C44.1841 12.878 44.3281 12.638 44.4601 12.362C44.6041 12.086 44.7241 11.834 44.8201 11.606C44.9161 11.366 44.9701 11.21 44.9821 11.138L45.5581 11.282L44.9641 14H36.1441Z" fill="#52BBFF"/>
<path d="M25.5269 14V13.46C25.6949 13.46 25.9349 13.442 26.2469 13.406C26.5589 13.37 26.8469 13.292 27.1109 13.172V2.10205C26.8469 1.98205 26.5589 1.90405 26.2469 1.86805C25.9349 1.83205 25.6949 1.81405 25.5269 1.81405V1.27405H30.2609V1.81405C30.0929 1.81405 29.8529 1.83205 29.5409 1.86805C29.2409 1.90405 28.9529 1.98205 28.6769 2.10205V13.082H33.5009C33.6449 12.926 33.7889 12.722 33.9329 12.47C34.0889 12.206 34.2269 11.948 34.3469 11.696C34.4789 11.444 34.5689 11.264 34.6169 11.156L35.1749 11.336L34.3469 14H25.5269Z" fill="#52BBFF"/>
<path d="M17.5808 14.252C17.2088 14.252 16.8008 14.21 16.3568 14.126C15.9128 14.042 15.4688 13.904 15.0248 13.712C14.5808 13.508 14.1728 13.232 13.8008 12.884C13.4288 12.536 13.1288 12.104 12.9008 11.588C12.6848 11.06 12.5528 10.412 12.5048 9.64405C12.4688 8.86405 12.4508 8.01205 12.4508 7.08805V2.10205C12.1868 1.98205 11.8988 1.90405 11.5868 1.86805C11.2748 1.83205 11.0348 1.81405 10.8668 1.81405V1.27405H15.6008V1.81405C15.4328 1.81405 15.1928 1.83205 14.8808 1.86805C14.5808 1.90405 14.2928 1.98205 14.0168 2.10205V6.99805C14.0168 7.22605 14.0168 7.52005 14.0168 7.88005C14.0168 8.22805 14.0228 8.60005 14.0348 8.99605C14.0468 9.38005 14.0708 9.75205 14.1068 10.112C14.1548 10.472 14.2148 10.772 14.2868 11.012C14.4308 11.42 14.6588 11.804 14.9708 12.164C15.2948 12.512 15.6908 12.794 16.1588 13.01C16.6388 13.214 17.1728 13.316 17.7608 13.316C18.6128 13.316 19.3808 13.136 20.0648 12.776C20.7488 12.416 21.2048 11.852 21.4328 11.084C21.5768 10.58 21.6488 9.95605 21.6488 9.21205C21.6608 8.45605 21.6668 7.65205 21.6668 6.80005V2.10205C21.4028 1.98205 21.1148 1.90405 20.8028 1.86805C20.4908 1.83205 20.2508 1.81405 20.0828 1.81405V1.27405H24.2588V1.81405C24.0908 1.81405 23.8508 1.83205 23.5388 1.86805C23.2388 1.90405 22.9508 1.98205 22.6748 2.10205V6.92605C22.6748 7.44205 22.6688 7.98805 22.6568 8.56405C22.6568 9.12805 22.6328 9.66805 22.5848 10.184C22.5488 10.7 22.4708 11.138 22.3508 11.498C22.1708 12.05 21.8888 12.506 21.5048 12.866C21.1328 13.226 20.7128 13.508 20.2448 13.712C19.7768 13.916 19.3088 14.054 18.8408 14.126C18.3728 14.21 17.9528 14.252 17.5808 14.252Z" fill="#52BBFF"/>
<path d="M4.896 14.252C4.332 14.252 3.786 14.204 3.258 14.108C2.742 14.024 2.31 13.928 1.962 13.82C1.614 13.712 1.422 13.634 1.386 13.586L0.828003 10.13L1.422 10.022C1.662 11.054 2.028 11.876 2.52 12.488C3.012 13.1 3.744 13.406 4.716 13.406C5.508 13.406 6.156 13.214 6.66 12.83C7.164 12.434 7.416 11.894 7.416 11.21C7.416 10.73 7.278 10.31 7.002 9.94997C6.726 9.57797 6.366 9.24197 5.922 8.94197C5.49 8.64197 5.022 8.34797 4.518 8.05997C4.026 7.75997 3.558 7.44197 3.114 7.10597C2.682 6.75797 2.328 6.36197 2.052 5.91797C1.776 5.47397 1.638 4.94597 1.638 4.33397C1.638 3.58997 1.83 2.97797 2.214 2.49797C2.598 2.00597 3.114 1.63997 3.762 1.39997C4.41 1.14797 5.124 1.02197 5.904 1.02197C6.456 1.02197 6.954 1.06997 7.398 1.16597C7.842 1.24997 8.178 1.31597 8.406 1.36397L8.802 4.27997L8.208 4.35197C8.112 3.59597 7.872 2.98997 7.488 2.53397C7.104 2.07797 6.534 1.84997 5.778 1.84997C5.322 1.84997 4.896 1.93997 4.5 2.11997C4.116 2.29997 3.804 2.54597 3.564 2.85797C3.336 3.16997 3.222 3.52397 3.222 3.91997C3.222 4.38797 3.36 4.79597 3.636 5.14397C3.924 5.49197 4.29 5.80997 4.734 6.09797C5.178 6.37397 5.646 6.65597 6.138 6.94397C6.63 7.23197 7.098 7.55597 7.542 7.91597C7.986 8.27597 8.346 8.70197 8.622 9.19397C8.91 9.68597 9.054 10.28 9.054 10.976C9.054 11.684 8.868 12.284 8.496 12.776C8.124 13.256 7.626 13.622 7.002 13.874C6.378 14.126 5.676 14.252 4.896 14.252Z" fill="#52BBFF"/>
</svg>
